<svg width="1200" height="675" viewBox="0 0 1200 675" fill="none" xmlns="http://www.w3.org/2000/svg">
<path fill-rule="evenodd" clip-rule="evenodd" d="M600.049 394.099C671.321 394.099 729.099 336.321 729.099 265.049C729.099 193.777 671.321 136 600.049 136C528.777 136 471 193.777 471 265.049C471 336.321 528.777 394.099 600.049 394.099ZM600.583 365.492C655.761 365.492 700.492 320.761 700.492 265.583C700.492 210.405 655.761 165.674 600.583 165.674C545.405 165.674 500.674 210.405 500.674 265.583C500.674 320.761 545.405 365.492 600.583 365.492Z" fill="black"/>
<rect x="728.317" y="157.663" width="333.75" height="28.5889" transform="rotate(135 728.317 157.663)" fill="black"/>
<rect x="708.885" y="393.698" width="334.013" height="28.5889" transform="rotate(-135 708.885 393.698)" fill="black"/>
<path d="M164.219 538V487.27H197.828V496.023H174.836V508.188H196.527V516.484H174.836V529.246H197.828V538H164.219ZM219.59 538.773C215.418 538.773 212.324 537.895 210.309 536.137C208.293 534.379 207.285 531.484 207.285 527.453V508.047H202.047V500.312H207.285V491.102H217.656V500.312H224.547V508.047H217.656V526.328C217.656 528.086 218.043 529.316 218.816 530.02C219.613 530.699 220.785 531.039 222.332 531.039C222.801 531.039 223.211 531.027 223.562 531.004C223.914 530.957 224.242 530.91 224.547 530.863V538.387C223.984 538.48 223.281 538.562 222.438 538.633C221.617 538.727 220.668 538.773 219.59 538.773ZM230.453 538V487.27H240.719V506.816H240.93C241.914 504.473 243.379 502.68 245.324 501.438C247.293 500.172 249.684 499.539 252.496 499.539C255.238 499.539 257.594 500.148 259.562 501.367C261.531 502.562 263.043 504.262 264.098 506.465C265.176 508.668 265.715 511.293 265.715 514.34V538H255.449V516.449C255.449 513.824 254.816 511.773 253.551 510.297C252.309 508.797 250.516 508.047 248.172 508.047C246.672 508.047 245.359 508.41 244.234 509.137C243.133 509.84 242.266 510.824 241.633 512.09C241.023 513.332 240.719 514.773 240.719 516.414V538H230.453ZM289.48 538.773C285.637 538.773 282.332 537.988 279.566 536.418C276.801 534.824 274.668 532.562 273.168 529.633C271.691 526.703 270.953 523.234 270.953 519.227V519.191C270.953 515.184 271.691 511.715 273.168 508.785C274.668 505.832 276.766 503.559 279.461 501.965C282.18 500.348 285.379 499.539 289.059 499.539C292.738 499.539 295.914 500.324 298.586 501.895C301.281 503.441 303.355 505.633 304.809 508.469C306.285 511.305 307.023 514.621 307.023 518.418V521.582H275.98V515.113H302.172L297.285 521.16V517.223C297.285 515.02 296.945 513.18 296.266 511.703C295.586 510.203 294.637 509.078 293.418 508.328C292.223 507.578 290.828 507.203 289.234 507.203C287.641 507.203 286.223 507.59 284.98 508.363C283.762 509.137 282.801 510.273 282.098 511.773C281.418 513.25 281.078 515.066 281.078 517.223V521.195C281.078 523.281 281.418 525.062 282.098 526.539C282.801 528.016 283.797 529.152 285.086 529.949C286.375 530.723 287.91 531.109 289.691 531.109C291.098 531.109 292.316 530.887 293.348 530.441C294.379 529.996 295.223 529.434 295.879 528.754C296.535 528.074 296.98 527.383 297.215 526.68L297.285 526.469H306.707L306.602 526.855C306.32 528.238 305.77 529.633 304.949 531.039C304.129 532.445 303.016 533.734 301.609 534.906C300.227 536.078 298.527 537.016 296.512 537.719C294.52 538.422 292.176 538.773 289.48 538.773ZM312.332 538V500.312H322.598V506.887H322.809C323.371 504.566 324.391 502.762 325.867 501.473C327.344 500.184 329.184 499.539 331.387 499.539C331.949 499.539 332.488 499.574 333.004 499.645C333.52 499.715 333.965 499.809 334.34 499.926V508.961C333.918 508.797 333.379 508.668 332.723 508.574C332.066 508.457 331.363 508.398 330.613 508.398C328.926 508.398 327.484 508.727 326.289 509.383C325.094 510.039 324.18 511 323.547 512.266C322.914 513.531 322.598 515.078 322.598 516.906V538H312.332ZM354.52 538.773C350.676 538.773 347.371 537.988 344.605 536.418C341.84 534.824 339.707 532.562 338.207 529.633C336.73 526.703 335.992 523.234 335.992 519.227V519.191C335.992 515.184 336.73 511.715 338.207 508.785C339.707 505.832 341.805 503.559 344.5 501.965C347.219 500.348 350.418 499.539 354.098 499.539C357.777 499.539 360.953 500.324 363.625 501.895C366.32 503.441 368.395 505.633 369.848 508.469C371.324 511.305 372.062 514.621 372.062 518.418V521.582H341.02V515.113H367.211L362.324 521.16V517.223C362.324 515.02 361.984 513.18 361.305 511.703C360.625 510.203 359.676 509.078 358.457 508.328C357.262 507.578 355.867 507.203 354.273 507.203C352.68 507.203 351.262 507.59 350.02 508.363C348.801 509.137 347.84 510.273 347.137 511.773C346.457 513.25 346.117 515.066 346.117 517.223V521.195C346.117 523.281 346.457 525.062 347.137 526.539C347.84 528.016 348.836 529.152 350.125 529.949C351.414 530.723 352.949 531.109 354.73 531.109C356.137 531.109 357.355 530.887 358.387 530.441C359.418 529.996 360.262 529.434 360.918 528.754C361.574 528.074 362.02 527.383 362.254 526.68L362.324 526.469H371.746L371.641 526.855C371.359 528.238 370.809 529.633 369.988 531.039C369.168 532.445 368.055 533.734 366.648 534.906C365.266 536.078 363.566 537.016 361.551 537.719C359.559 538.422 357.215 538.773 354.52 538.773ZM390.203 538.773C387.438 538.773 385.082 538.211 383.137 537.086C381.215 535.938 379.738 534.309 378.707 532.199C377.699 530.09 377.195 527.57 377.195 524.641V500.312H387.461V522.496C387.461 524.957 388.035 526.867 389.184 528.227C390.355 529.586 392.09 530.266 394.387 530.266C395.535 530.266 396.566 530.066 397.48 529.668C398.418 529.27 399.215 528.707 399.871 527.98C400.527 527.23 401.031 526.352 401.383 525.344C401.734 524.312 401.91 523.188 401.91 521.969V500.312H412.176V538H401.91V531.777H401.699C401.043 533.207 400.176 534.449 399.098 535.504C398.043 536.559 396.766 537.367 395.266 537.93C393.789 538.492 392.102 538.773 390.203 538.773ZM418.855 538V500.312H429.121V506.641H429.332C430.105 504.484 431.418 502.762 433.27 501.473C435.145 500.184 437.348 499.539 439.879 499.539C441.637 499.539 443.219 499.844 444.625 500.453C446.031 501.062 447.215 501.941 448.176 503.09C449.16 504.238 449.852 505.645 450.25 507.309H450.461C451.023 505.715 451.867 504.344 452.992 503.195C454.141 502.023 455.488 501.121 457.035 500.488C458.605 499.855 460.316 499.539 462.168 499.539C464.629 499.539 466.785 500.066 468.637 501.121C470.488 502.176 471.93 503.652 472.961 505.551C473.992 507.449 474.508 509.676 474.508 512.23V538H464.242V514.797C464.242 513.344 463.996 512.113 463.504 511.105C463.035 510.098 462.344 509.336 461.43 508.82C460.539 508.305 459.426 508.047 458.09 508.047C456.801 508.047 455.664 508.34 454.68 508.926C453.719 509.512 452.969 510.332 452.43 511.387C451.891 512.441 451.621 513.672 451.621 515.078V538H441.742V514.48C441.742 513.121 441.496 511.961 441.004 511C440.512 510.039 439.809 509.312 438.895 508.82C438.004 508.305 436.926 508.047 435.66 508.047C434.371 508.047 433.234 508.352 432.25 508.961C431.266 509.57 430.492 510.414 429.93 511.492C429.391 512.57 429.121 513.824 429.121 515.254V538H418.855ZM514.691 538.879C510.684 538.879 507.18 538.293 504.18 537.121C501.203 535.926 498.859 534.227 497.148 532.023C495.438 529.797 494.477 527.125 494.266 524.008L494.23 523.445H504.25L504.32 523.832C504.555 525.145 505.141 526.281 506.078 527.242C507.039 528.18 508.281 528.918 509.805 529.457C511.328 529.973 513.051 530.23 514.973 530.23C516.941 530.23 518.629 529.973 520.035 529.457C521.465 528.918 522.566 528.168 523.34 527.207C524.137 526.223 524.535 525.086 524.535 523.797V523.762C524.535 522.051 523.855 520.715 522.496 519.754C521.16 518.77 518.91 517.949 515.746 517.293L510.402 516.238C505.41 515.23 501.648 513.531 499.117 511.141C496.586 508.75 495.32 505.645 495.32 501.824V501.789C495.32 498.695 496.152 496 497.816 493.703C499.48 491.383 501.766 489.59 504.672 488.324C507.578 487.035 510.906 486.391 514.656 486.391C518.57 486.391 521.945 487 524.781 488.219C527.641 489.438 529.867 491.16 531.461 493.387C533.055 495.613 533.934 498.203 534.098 501.156L534.133 501.824H524.113L524.078 501.402C523.891 500.066 523.387 498.93 522.566 497.992C521.746 497.031 520.656 496.293 519.297 495.777C517.961 495.262 516.414 495.004 514.656 495.004C512.852 495.004 511.293 495.273 509.98 495.812C508.668 496.328 507.66 497.043 506.957 497.957C506.277 498.871 505.938 499.938 505.938 501.156V501.191C505.938 502.785 506.617 504.074 507.977 505.059C509.336 506.043 511.469 506.828 514.375 507.414L519.754 508.504C523.293 509.207 526.199 510.18 528.473 511.422C530.746 512.664 532.422 514.234 533.5 516.133C534.602 518.008 535.152 520.27 535.152 522.918V522.953C535.152 526.211 534.332 529.035 532.691 531.426C531.074 533.793 528.73 535.633 525.66 536.945C522.613 538.234 518.957 538.879 514.691 538.879ZM555.754 538.773C551.582 538.773 548.488 537.895 546.473 536.137C544.457 534.379 543.449 531.484 543.449 527.453V508.047H538.211V500.312H543.449V491.102H553.82V500.312H560.711V508.047H553.82V526.328C553.82 528.086 554.207 529.316 554.98 530.02C555.777 530.699 556.949 531.039 558.496 531.039C558.965 531.039 559.375 531.027 559.727 531.004C560.078 530.957 560.406 530.91 560.711 530.863V538.387C560.148 538.48 559.445 538.562 558.602 538.633C557.781 538.727 556.832 538.773 555.754 538.773ZM577.234 538.598C574.727 538.598 572.523 538.117 570.625 537.156C568.727 536.172 567.238 534.824 566.16 533.113C565.105 531.379 564.578 529.41 564.578 527.207V527.137C564.578 524.84 565.152 522.883 566.301 521.266C567.449 519.625 569.113 518.336 571.293 517.398C573.473 516.461 576.121 515.887 579.238 515.676L593.934 514.762V521.16L580.785 522.004C578.816 522.121 577.316 522.59 576.285 523.41C575.254 524.207 574.738 525.273 574.738 526.609V526.68C574.738 528.062 575.266 529.152 576.32 529.949C577.375 530.723 578.793 531.109 580.574 531.109C582.098 531.109 583.457 530.816 584.652 530.23C585.871 529.621 586.82 528.801 587.5 527.77C588.203 526.715 588.555 525.531 588.555 524.219V512.793C588.555 511.129 588.027 509.816 586.973 508.855C585.918 507.871 584.383 507.379 582.367 507.379C580.445 507.379 578.922 507.777 577.797 508.574C576.672 509.371 575.98 510.379 575.723 511.598L575.652 511.914H566.266L566.301 511.492C566.488 509.172 567.25 507.109 568.586 505.305C569.945 503.5 571.82 502.094 574.211 501.086C576.625 500.055 579.484 499.539 582.789 499.539C586.047 499.539 588.871 500.066 591.262 501.121C593.652 502.152 595.504 503.617 596.816 505.516C598.152 507.414 598.82 509.629 598.82 512.16V538H588.555V532.375H588.344C587.641 533.664 586.727 534.777 585.602 535.715C584.5 536.629 583.246 537.344 581.84 537.859C580.434 538.352 578.898 538.598 577.234 538.598ZM605.465 538V500.312H615.73V506.5H615.941C616.926 504.344 618.379 502.645 620.301 501.402C622.223 500.16 624.602 499.539 627.438 499.539C631.586 499.539 634.785 500.793 637.035 503.301C639.309 505.785 640.445 509.242 640.445 513.672V538H630.18V515.781C630.18 513.32 629.594 511.422 628.422 510.086C627.273 508.727 625.551 508.047 623.254 508.047C621.73 508.047 620.406 508.398 619.281 509.102C618.156 509.781 617.277 510.742 616.645 511.984C616.035 513.227 615.73 514.68 615.73 516.344V538H605.465ZM660.906 538.773C657.742 538.773 655.012 537.988 652.715 536.418C650.418 534.848 648.648 532.598 647.406 529.668C646.188 526.738 645.578 523.234 645.578 519.156V519.121C645.578 515.02 646.199 511.516 647.441 508.609C648.684 505.68 650.441 503.441 652.715 501.895C655.012 500.324 657.742 499.539 660.906 499.539C662.688 499.539 664.328 499.832 665.828 500.418C667.328 501.004 668.641 501.848 669.766 502.949C670.914 504.027 671.828 505.328 672.508 506.852H672.719V487.27H682.984V538H672.719V531.566H672.508C671.852 533.066 670.961 534.355 669.836 535.434C668.711 536.488 667.398 537.309 665.898 537.895C664.398 538.48 662.734 538.773 660.906 538.773ZM664.352 530.266C666.016 530.266 667.48 529.82 668.746 528.93C670.012 528.016 670.996 526.727 671.699 525.062C672.402 523.398 672.754 521.43 672.754 519.156V519.121C672.754 516.848 672.391 514.891 671.664 513.25C670.961 511.586 669.977 510.309 668.711 509.418C667.469 508.504 666.016 508.047 664.352 508.047C662.641 508.047 661.164 508.492 659.922 509.383C658.68 510.273 657.719 511.551 657.039 513.215C656.359 514.855 656.02 516.824 656.02 519.121V519.156C656.02 521.43 656.348 523.398 657.004 525.062C657.684 526.727 658.645 528.016 659.887 528.93C661.152 529.82 662.641 530.266 664.352 530.266ZM701.055 538.598C698.547 538.598 696.344 538.117 694.445 537.156C692.547 536.172 691.059 534.824 689.98 533.113C688.926 531.379 688.398 529.41 688.398 527.207V527.137C688.398 524.84 688.973 522.883 690.121 521.266C691.27 519.625 692.934 518.336 695.113 517.398C697.293 516.461 699.941 515.887 703.059 515.676L717.754 514.762V521.16L704.605 522.004C702.637 522.121 701.137 522.59 700.105 523.41C699.074 524.207 698.559 525.273 698.559 526.609V526.68C698.559 528.062 699.086 529.152 700.141 529.949C701.195 530.723 702.613 531.109 704.395 531.109C705.918 531.109 707.277 530.816 708.473 530.23C709.691 529.621 710.641 528.801 711.32 527.77C712.023 526.715 712.375 525.531 712.375 524.219V512.793C712.375 511.129 711.848 509.816 710.793 508.855C709.738 507.871 708.203 507.379 706.188 507.379C704.266 507.379 702.742 507.777 701.617 508.574C700.492 509.371 699.801 510.379 699.543 511.598L699.473 511.914H690.086L690.121 511.492C690.309 509.172 691.07 507.109 692.406 505.305C693.766 503.5 695.641 502.094 698.031 501.086C700.445 500.055 703.305 499.539 706.609 499.539C709.867 499.539 712.691 500.066 715.082 501.121C717.473 502.152 719.324 503.617 720.637 505.516C721.973 507.414 722.641 509.629 722.641 512.16V538H712.375V532.375H712.164C711.461 533.664 710.547 534.777 709.422 535.715C708.32 536.629 707.066 537.344 705.66 537.859C704.254 538.352 702.719 538.598 701.055 538.598ZM729.285 538V500.312H739.551V506.887H739.762C740.324 504.566 741.344 502.762 742.82 501.473C744.297 500.184 746.137 499.539 748.34 499.539C748.902 499.539 749.441 499.574 749.957 499.645C750.473 499.715 750.918 499.809 751.293 499.926V508.961C750.871 508.797 750.332 508.668 749.676 508.574C749.02 508.457 748.316 508.398 747.566 508.398C745.879 508.398 744.438 508.727 743.242 509.383C742.047 510.039 741.133 511 740.5 512.266C739.867 513.531 739.551 515.078 739.551 516.906V538H729.285ZM768.273 538.773C765.109 538.773 762.379 537.988 760.082 536.418C757.785 534.848 756.016 532.598 754.773 529.668C753.555 526.738 752.945 523.234 752.945 519.156V519.121C752.945 515.02 753.566 511.516 754.809 508.609C756.051 505.68 757.809 503.441 760.082 501.895C762.379 500.324 765.109 499.539 768.273 499.539C770.055 499.539 771.695 499.832 773.195 500.418C774.695 501.004 776.008 501.848 777.133 502.949C778.281 504.027 779.195 505.328 779.875 506.852H780.086V487.27H790.352V538H780.086V531.566H779.875C779.219 533.066 778.328 534.355 777.203 535.434C776.078 536.488 774.766 537.309 773.266 537.895C771.766 538.48 770.102 538.773 768.273 538.773ZM771.719 530.266C773.383 530.266 774.848 529.82 776.113 528.93C777.379 528.016 778.363 526.727 779.066 525.062C779.77 523.398 780.121 521.43 780.121 519.156V519.121C780.121 516.848 779.758 514.891 779.031 513.25C778.328 511.586 777.344 510.309 776.078 509.418C774.836 508.504 773.383 508.047 771.719 508.047C770.008 508.047 768.531 508.492 767.289 509.383C766.047 510.273 765.086 511.551 764.406 513.215C763.727 514.855 763.387 516.824 763.387 519.121V519.156C763.387 521.43 763.715 523.398 764.371 525.062C765.051 526.727 766.012 528.016 767.254 528.93C768.52 529.82 770.008 530.266 771.719 530.266ZM812.359 538V487.27H822.977V529.246H845.16V538H812.359ZM850.785 538V500.312H861.051V538H850.785ZM855.918 495.461C854.371 495.461 853.07 494.934 852.016 493.879C850.961 492.824 850.434 491.57 850.434 490.117C850.434 488.641 850.961 487.387 852.016 486.355C853.07 485.301 854.371 484.773 855.918 484.773C857.465 484.773 858.766 485.301 859.82 486.355C860.875 487.387 861.402 488.641 861.402 490.117C861.402 491.57 860.875 492.824 859.82 493.879C858.766 494.934 857.465 495.461 855.918 495.461ZM890.266 538.773C888.461 538.773 886.809 538.48 885.309 537.895C883.809 537.309 882.496 536.488 881.371 535.434C880.246 534.355 879.344 533.066 878.664 531.566H878.453V538H868.188V487.27H878.453V506.852H878.664C879.367 505.328 880.281 504.027 881.406 502.949C882.531 501.848 883.844 501.004 885.344 500.418C886.867 499.832 888.52 499.539 890.301 499.539C893.465 499.539 896.184 500.324 898.457 501.895C900.754 503.441 902.523 505.68 903.766 508.609C905.008 511.516 905.629 515.02 905.629 519.121V519.156C905.629 523.234 905.008 526.738 903.766 529.668C902.523 532.598 900.754 534.848 898.457 536.418C896.16 537.988 893.43 538.773 890.266 538.773ZM886.855 530.266C888.566 530.266 890.043 529.82 891.285 528.93C892.527 528.016 893.488 526.727 894.168 525.062C894.848 523.398 895.188 521.43 895.188 519.156V519.121C895.188 516.824 894.848 514.855 894.168 513.215C893.488 511.551 892.516 510.273 891.25 509.383C890.008 508.492 888.543 508.047 886.855 508.047C885.191 508.047 883.727 508.504 882.461 509.418C881.219 510.309 880.234 511.586 879.508 513.25C878.805 514.891 878.453 516.848 878.453 519.121V519.156C878.453 521.43 878.805 523.398 879.508 525.062C880.211 526.727 881.195 528.016 882.461 528.93C883.727 529.82 885.191 530.266 886.855 530.266ZM910.902 538V500.312H921.168V506.887H921.379C921.941 504.566 922.961 502.762 924.438 501.473C925.914 500.184 927.754 499.539 929.957 499.539C930.52 499.539 931.059 499.574 931.574 499.645C932.09 499.715 932.535 499.809 932.91 499.926V508.961C932.488 508.797 931.949 508.668 931.293 508.574C930.637 508.457 929.934 508.398 929.184 508.398C927.496 508.398 926.055 508.727 924.859 509.383C923.664 510.039 922.75 511 922.117 512.266C921.484 513.531 921.168 515.078 921.168 516.906V538H910.902ZM947.43 538.598C944.922 538.598 942.719 538.117 940.82 537.156C938.922 536.172 937.434 534.824 936.355 533.113C935.301 531.379 934.773 529.41 934.773 527.207V527.137C934.773 524.84 935.348 522.883 936.496 521.266C937.645 519.625 939.309 518.336 941.488 517.398C943.668 516.461 946.316 515.887 949.434 515.676L964.129 514.762V521.16L950.98 522.004C949.012 522.121 947.512 522.59 946.48 523.41C945.449 524.207 944.934 525.273 944.934 526.609V526.68C944.934 528.062 945.461 529.152 946.516 529.949C947.57 530.723 948.988 531.109 950.77 531.109C952.293 531.109 953.652 530.816 954.848 530.23C956.066 529.621 957.016 528.801 957.695 527.77C958.398 526.715 958.75 525.531 958.75 524.219V512.793C958.75 511.129 958.223 509.816 957.168 508.855C956.113 507.871 954.578 507.379 952.562 507.379C950.641 507.379 949.117 507.777 947.992 508.574C946.867 509.371 946.176 510.379 945.918 511.598L945.848 511.914H936.461L936.496 511.492C936.684 509.172 937.445 507.109 938.781 505.305C940.141 503.5 942.016 502.094 944.406 501.086C946.82 500.055 949.68 499.539 952.984 499.539C956.242 499.539 959.066 500.066 961.457 501.121C963.848 502.152 965.699 503.617 967.012 505.516C968.348 507.414 969.016 509.629 969.016 512.16V538H958.75V532.375H958.539C957.836 533.664 956.922 534.777 955.797 535.715C954.695 536.629 953.441 537.344 952.035 537.859C950.629 538.352 949.094 538.598 947.43 538.598ZM975.66 538V500.312H985.926V506.887H986.137C986.699 504.566 987.719 502.762 989.195 501.473C990.672 500.184 992.512 499.539 994.715 499.539C995.277 499.539 995.816 499.574 996.332 499.645C996.848 499.715 997.293 499.809 997.668 499.926V508.961C997.246 508.797 996.707 508.668 996.051 508.574C995.395 508.457 994.691 508.398 993.941 508.398C992.254 508.398 990.812 508.727 989.617 509.383C988.422 510.039 987.508 511 986.875 512.266C986.242 513.531 985.926 515.078 985.926 516.906V538H975.66ZM1009.06 550.41C1008.05 550.41 1007.08 550.363 1006.14 550.27C1005.2 550.176 1004.43 550.07 1003.82 549.953V542.324C1004.2 542.395 1004.68 542.465 1005.26 542.535C1005.85 542.629 1006.52 542.676 1007.27 542.676C1008.81 542.676 1010.03 542.418 1010.92 541.902C1011.81 541.387 1012.48 540.496 1012.93 539.23L1013.38 538L1000.06 500.312H1011.34L1019.85 531.812L1018.48 529.773H1020.41L1019.04 531.812L1027.55 500.312H1038.38L1025.44 538.668C1024.46 541.621 1023.21 543.953 1021.71 545.664C1020.24 547.375 1018.46 548.594 1016.37 549.32C1014.29 550.047 1011.85 550.41 1009.06 550.41Z" fill="black"/>
</svg>
